<mxfile host="app.diagrams.net" agent="Mozilla/5.0 (X11; Linux x86_64) AppleWebKit/537.36 (KHTML, like Gecko) Chrome/140.0.0.0 Safari/537.36" version="28.2.5">
  <diagram name="Page-1" id="WHWfT9TVv4YTDaLkPs4_">
    <mxGraphModel dx="872" dy="447" grid="1" gridSize="10" guides="1" tooltips="1" connect="1" arrows="1" fold="1" page="1" pageScale="1" pageWidth="850" pageHeight="1100" math="0" shadow="0">
      <root>
        <mxCell id="0" />
        <mxCell id="1" parent="0" />
        <mxCell id="lz0oMneQzwOgQL5I6wRC-5" value="" style="edgeStyle=orthogonalEdgeStyle;rounded=0;orthogonalLoop=1;jettySize=auto;html=1;endArrow=none;endFill=0;" parent="1" source="lz0oMneQzwOgQL5I6wRC-1" target="lz0oMneQzwOgQL5I6wRC-4" edge="1">
          <mxGeometry relative="1" as="geometry">
            <Array as="points">
              <mxPoint x="425" y="220" />
              <mxPoint x="85" y="220" />
            </Array>
          </mxGeometry>
        </mxCell>
        <mxCell id="lz0oMneQzwOgQL5I6wRC-1" value="Patitas en Casa Lima (Home)" style="rounded=1;whiteSpace=wrap;html=1;" parent="1" vertex="1">
          <mxGeometry x="365" y="120" width="120" height="60" as="geometry" />
        </mxCell>
        <mxCell id="lz0oMneQzwOgQL5I6wRC-4" value="Adopta" style="whiteSpace=wrap;html=1;rounded=1;" parent="1" vertex="1">
          <mxGeometry x="25" y="260" width="120" height="60" as="geometry" />
        </mxCell>
        <mxCell id="lz0oMneQzwOgQL5I6wRC-6" value="Educación" style="whiteSpace=wrap;html=1;rounded=1;" parent="1" vertex="1">
          <mxGeometry x="195" y="260" width="120" height="60" as="geometry" />
        </mxCell>
        <mxCell id="lz0oMneQzwOgQL5I6wRC-7" value="Ayúdanos" style="whiteSpace=wrap;html=1;rounded=1;" parent="1" vertex="1">
          <mxGeometry x="365" y="260" width="120" height="60" as="geometry" />
        </mxCell>
        <mxCell id="lz0oMneQzwOgQL5I6wRC-8" value="" style="endArrow=none;html=1;rounded=0;entryX=0.5;entryY=1;entryDx=0;entryDy=0;exitX=0.5;exitY=0;exitDx=0;exitDy=0;" parent="1" source="lz0oMneQzwOgQL5I6wRC-6" target="lz0oMneQzwOgQL5I6wRC-1" edge="1">
          <mxGeometry width="50" height="50" relative="1" as="geometry">
            <mxPoint x="245" y="510" as="sourcePoint" />
            <mxPoint x="295" y="460" as="targetPoint" />
            <Array as="points">
              <mxPoint x="255" y="220" />
              <mxPoint x="425" y="220" />
            </Array>
          </mxGeometry>
        </mxCell>
        <mxCell id="lz0oMneQzwOgQL5I6wRC-11" value="" style="endArrow=none;html=1;rounded=0;entryX=0.5;entryY=0;entryDx=0;entryDy=0;" parent="1" target="lz0oMneQzwOgQL5I6wRC-7" edge="1">
          <mxGeometry width="50" height="50" relative="1" as="geometry">
            <mxPoint x="265" y="220" as="sourcePoint" />
            <mxPoint x="295" y="460" as="targetPoint" />
            <Array as="points">
              <mxPoint x="425" y="220" />
            </Array>
          </mxGeometry>
        </mxCell>
        <mxCell id="maXTgDsmzpH7eOjJbVBU-1" value="Nosotros" style="whiteSpace=wrap;html=1;rounded=1;" parent="1" vertex="1">
          <mxGeometry x="535" y="260" width="120" height="60" as="geometry" />
        </mxCell>
        <mxCell id="maXTgDsmzpH7eOjJbVBU-2" value="" style="endArrow=none;html=1;rounded=0;entryX=0.5;entryY=0;entryDx=0;entryDy=0;" parent="1" target="maXTgDsmzpH7eOjJbVBU-1" edge="1">
          <mxGeometry width="50" height="50" relative="1" as="geometry">
            <mxPoint x="425" y="220" as="sourcePoint" />
            <mxPoint x="585" y="150" as="targetPoint" />
            <Array as="points">
              <mxPoint x="595" y="220" />
            </Array>
          </mxGeometry>
        </mxCell>
        <mxCell id="maXTgDsmzpH7eOjJbVBU-9" value="&lt;div&gt;Nuestros perritos&lt;/div&gt;" style="whiteSpace=wrap;html=1;rounded=1;" parent="1" vertex="1">
          <mxGeometry x="45" y="370" width="120" height="60" as="geometry" />
        </mxCell>
        <mxCell id="maXTgDsmzpH7eOjJbVBU-10" value="&lt;div&gt;Proceso de Adopción&lt;/div&gt;" style="whiteSpace=wrap;html=1;rounded=1;" parent="1" vertex="1">
          <mxGeometry x="45" y="450" width="120" height="60" as="geometry" />
        </mxCell>
        <mxCell id="maXTgDsmzpH7eOjJbVBU-11" value="&lt;div&gt;Formulario de Pre-Adopción&lt;/div&gt;" style="whiteSpace=wrap;html=1;rounded=1;" parent="1" vertex="1">
          <mxGeometry x="45" y="530" width="120" height="60" as="geometry" />
        </mxCell>
        <mxCell id="maXTgDsmzpH7eOjJbVBU-12" value="" style="endArrow=none;html=1;rounded=0;entryX=0.5;entryY=1;entryDx=0;entryDy=0;" parent="1" edge="1">
          <mxGeometry width="50" height="50" relative="1" as="geometry">
            <mxPoint x="25" y="340" as="sourcePoint" />
            <mxPoint x="85" y="320" as="targetPoint" />
            <Array as="points">
              <mxPoint x="85" y="340" />
            </Array>
          </mxGeometry>
        </mxCell>
        <mxCell id="maXTgDsmzpH7eOjJbVBU-13" value="" style="endArrow=none;html=1;rounded=0;exitX=0;exitY=0.5;exitDx=0;exitDy=0;" parent="1" source="maXTgDsmzpH7eOjJbVBU-9" edge="1">
          <mxGeometry width="50" height="50" relative="1" as="geometry">
            <mxPoint x="265" y="490" as="sourcePoint" />
            <mxPoint x="25" y="340" as="targetPoint" />
            <Array as="points">
              <mxPoint x="25" y="400" />
            </Array>
          </mxGeometry>
        </mxCell>
        <mxCell id="maXTgDsmzpH7eOjJbVBU-14" value="" style="endArrow=none;html=1;rounded=0;exitX=0;exitY=0.5;exitDx=0;exitDy=0;" parent="1" source="maXTgDsmzpH7eOjJbVBU-10" edge="1">
          <mxGeometry width="50" height="50" relative="1" as="geometry">
            <mxPoint x="325" y="520" as="sourcePoint" />
            <mxPoint x="25" y="400" as="targetPoint" />
            <Array as="points">
              <mxPoint x="25" y="480" />
            </Array>
          </mxGeometry>
        </mxCell>
        <mxCell id="maXTgDsmzpH7eOjJbVBU-15" value="" style="endArrow=none;html=1;rounded=0;exitX=0;exitY=0.5;exitDx=0;exitDy=0;" parent="1" source="maXTgDsmzpH7eOjJbVBU-11" edge="1">
          <mxGeometry width="50" height="50" relative="1" as="geometry">
            <mxPoint x="385" y="520" as="sourcePoint" />
            <mxPoint x="25" y="480" as="targetPoint" />
            <Array as="points">
              <mxPoint x="25" y="560" />
            </Array>
          </mxGeometry>
        </mxCell>
        <mxCell id="maXTgDsmzpH7eOjJbVBU-16" value="&lt;div&gt;Tenencia Responsable&lt;/div&gt;" style="whiteSpace=wrap;html=1;rounded=1;" parent="1" vertex="1">
          <mxGeometry x="210" y="370" width="120" height="60" as="geometry" />
        </mxCell>
        <mxCell id="maXTgDsmzpH7eOjJbVBU-17" value="&lt;div&gt;Problema del Abandono en Lima&lt;/div&gt;" style="whiteSpace=wrap;html=1;rounded=1;" parent="1" vertex="1">
          <mxGeometry x="210" y="450" width="120" height="60" as="geometry" />
        </mxCell>
        <mxCell id="maXTgDsmzpH7eOjJbVBU-19" value="" style="endArrow=none;html=1;rounded=0;entryX=0.5;entryY=1;entryDx=0;entryDy=0;" parent="1" edge="1">
          <mxGeometry width="50" height="50" relative="1" as="geometry">
            <mxPoint x="190" y="340" as="sourcePoint" />
            <mxPoint x="250" y="320" as="targetPoint" />
            <Array as="points">
              <mxPoint x="250" y="340" />
            </Array>
          </mxGeometry>
        </mxCell>
        <mxCell id="maXTgDsmzpH7eOjJbVBU-20" value="" style="endArrow=none;html=1;rounded=0;exitX=0;exitY=0.5;exitDx=0;exitDy=0;" parent="1" source="maXTgDsmzpH7eOjJbVBU-16" edge="1">
          <mxGeometry width="50" height="50" relative="1" as="geometry">
            <mxPoint x="430" y="490" as="sourcePoint" />
            <mxPoint x="190" y="340" as="targetPoint" />
            <Array as="points">
              <mxPoint x="190" y="400" />
            </Array>
          </mxGeometry>
        </mxCell>
        <mxCell id="maXTgDsmzpH7eOjJbVBU-21" value="" style="endArrow=none;html=1;rounded=0;exitX=0;exitY=0.5;exitDx=0;exitDy=0;" parent="1" source="maXTgDsmzpH7eOjJbVBU-17" edge="1">
          <mxGeometry width="50" height="50" relative="1" as="geometry">
            <mxPoint x="490" y="520" as="sourcePoint" />
            <mxPoint x="190" y="400" as="targetPoint" />
            <Array as="points">
              <mxPoint x="190" y="480" />
            </Array>
          </mxGeometry>
        </mxCell>
        <mxCell id="maXTgDsmzpH7eOjJbVBU-23" value="&lt;div&gt;Donaciones&lt;/div&gt;" style="whiteSpace=wrap;html=1;rounded=1;" parent="1" vertex="1">
          <mxGeometry x="385" y="370" width="120" height="60" as="geometry" />
        </mxCell>
        <mxCell id="maXTgDsmzpH7eOjJbVBU-24" value="&lt;div&gt;Voluntariado&lt;/div&gt;" style="whiteSpace=wrap;html=1;rounded=1;" parent="1" vertex="1">
          <mxGeometry x="385" y="450" width="120" height="60" as="geometry" />
        </mxCell>
        <mxCell id="maXTgDsmzpH7eOjJbVBU-25" value="&lt;div&gt;Hogares Temporales&lt;/div&gt;" style="whiteSpace=wrap;html=1;rounded=1;" parent="1" vertex="1">
          <mxGeometry x="385" y="530" width="120" height="60" as="geometry" />
        </mxCell>
        <mxCell id="maXTgDsmzpH7eOjJbVBU-26" value="" style="endArrow=none;html=1;rounded=0;entryX=0.5;entryY=1;entryDx=0;entryDy=0;" parent="1" edge="1">
          <mxGeometry width="50" height="50" relative="1" as="geometry">
            <mxPoint x="365" y="340" as="sourcePoint" />
            <mxPoint x="425" y="320" as="targetPoint" />
            <Array as="points">
              <mxPoint x="425" y="340" />
            </Array>
          </mxGeometry>
        </mxCell>
        <mxCell id="maXTgDsmzpH7eOjJbVBU-27" value="" style="endArrow=none;html=1;rounded=0;exitX=0;exitY=0.5;exitDx=0;exitDy=0;" parent="1" source="maXTgDsmzpH7eOjJbVBU-23" edge="1">
          <mxGeometry width="50" height="50" relative="1" as="geometry">
            <mxPoint x="605" y="490" as="sourcePoint" />
            <mxPoint x="365" y="340" as="targetPoint" />
            <Array as="points">
              <mxPoint x="365" y="400" />
            </Array>
          </mxGeometry>
        </mxCell>
        <mxCell id="maXTgDsmzpH7eOjJbVBU-28" value="" style="endArrow=none;html=1;rounded=0;exitX=0;exitY=0.5;exitDx=0;exitDy=0;" parent="1" source="maXTgDsmzpH7eOjJbVBU-24" edge="1">
          <mxGeometry width="50" height="50" relative="1" as="geometry">
            <mxPoint x="665" y="520" as="sourcePoint" />
            <mxPoint x="365" y="400" as="targetPoint" />
            <Array as="points">
              <mxPoint x="365" y="480" />
            </Array>
          </mxGeometry>
        </mxCell>
        <mxCell id="maXTgDsmzpH7eOjJbVBU-29" value="" style="endArrow=none;html=1;rounded=0;exitX=0;exitY=0.5;exitDx=0;exitDy=0;" parent="1" source="maXTgDsmzpH7eOjJbVBU-25" edge="1">
          <mxGeometry width="50" height="50" relative="1" as="geometry">
            <mxPoint x="725" y="520" as="sourcePoint" />
            <mxPoint x="365" y="480" as="targetPoint" />
            <Array as="points">
              <mxPoint x="365" y="560" />
            </Array>
          </mxGeometry>
        </mxCell>
        <mxCell id="maXTgDsmzpH7eOjJbVBU-30" value="&lt;div&gt;Contacto&lt;/div&gt;" style="whiteSpace=wrap;html=1;rounded=1;" parent="1" vertex="1">
          <mxGeometry x="555" y="370" width="120" height="60" as="geometry" />
        </mxCell>
        <mxCell id="maXTgDsmzpH7eOjJbVBU-33" value="" style="endArrow=none;html=1;rounded=0;entryX=0.5;entryY=1;entryDx=0;entryDy=0;" parent="1" edge="1">
          <mxGeometry width="50" height="50" relative="1" as="geometry">
            <mxPoint x="535" y="340" as="sourcePoint" />
            <mxPoint x="595" y="320" as="targetPoint" />
            <Array as="points">
              <mxPoint x="595" y="340" />
            </Array>
          </mxGeometry>
        </mxCell>
        <mxCell id="maXTgDsmzpH7eOjJbVBU-34" value="" style="endArrow=none;html=1;rounded=0;exitX=0;exitY=0.5;exitDx=0;exitDy=0;" parent="1" source="maXTgDsmzpH7eOjJbVBU-30" edge="1">
          <mxGeometry width="50" height="50" relative="1" as="geometry">
            <mxPoint x="775" y="490" as="sourcePoint" />
            <mxPoint x="535" y="340" as="targetPoint" />
            <Array as="points">
              <mxPoint x="535" y="400" />
            </Array>
          </mxGeometry>
        </mxCell>
        <mxCell id="RD9WxZfMTA7nsmD1-FLm-1" value="Pie de Página" style="whiteSpace=wrap;html=1;rounded=1;" vertex="1" parent="1">
          <mxGeometry x="685" y="260" width="120" height="60" as="geometry" />
        </mxCell>
        <mxCell id="RD9WxZfMTA7nsmD1-FLm-9" value="" style="endArrow=none;html=1;rounded=0;entryX=0.5;entryY=0;entryDx=0;entryDy=0;" edge="1" parent="1" target="RD9WxZfMTA7nsmD1-FLm-1">
          <mxGeometry width="50" height="50" relative="1" as="geometry">
            <mxPoint x="590" y="220" as="sourcePoint" />
            <mxPoint x="730" y="170" as="targetPoint" />
            <Array as="points">
              <mxPoint x="745" y="220" />
            </Array>
          </mxGeometry>
        </mxCell>
      </root>
    </mxGraphModel>
  </diagram>
</mxfile>
